<svg width="107" height="100" viewBox="0 0 107 100" fill="none" xmlns="http://www.w3.org/2000/svg">
<path d="M56.8618 33.3936V91.4829H65.2947V46.4842L56.8618 33.3936Z" fill="white"/>
<path d="M96.7561 91.4829L56.8618 30.4482H65.2947L106 91.4829H96.7561Z" fill="white"/>
<path d="M96.7561 74.4652L106 88.5375V30.4482H96.7561V74.4652Z" fill="white"/>
<path d="M56.8618 33.3936V91.4829H65.2947V46.4842L56.8618 33.3936Z" stroke="black"/>
<path d="M96.7561 91.4829L56.8618 30.4482H65.2947L106 91.4829H96.7561Z" stroke="black"/>
<path d="M96.7561 74.4652L106 88.5375V30.4482H96.7561V74.4652Z" stroke="black"/>
<path d="M32.81 52.6898L30.4824 61.2243H50.6549L47.5514 52.6898H32.81Z" fill="#F05E47" stroke="black"/>
<path d="M16 99.2416H1L30.2242 2H44.707L16 99.2416Z" fill="#F05E47"/>
<path d="M41.3449 23.2069L47.2932 2L81.1726 99.2416H66.6898L41.3449 23.2069Z" fill="#F05E47"/>
<path d="M16 99.2416H1L30.2242 2H44.707L16 99.2416Z" stroke="black"/>
<path d="M41.3449 23.2069L47.2932 2L81.1726 99.2416H66.6898L41.3449 23.2069Z" stroke="black"/>
</svg>
