<svg width="25" height="25" viewBox="0 0 25 25" fill="none" xmlns="http://www.w3.org/2000/svg">
<path fill-rule="evenodd" clip-rule="evenodd" d="M13.4937 5.46875C13.4937 5.26155 13.4114 5.06284 13.2649 4.91632C13.1184 4.76981 12.9197 4.6875 12.7125 4.6875H2.34375C1.72215 4.6875 1.12601 4.93443 0.686468 5.37397C0.24693 5.81351 0 6.40965 0 7.03125L0 22.6562C0 23.2779 0.24693 23.874 0.686468 24.3135C1.12601 24.7531 1.72215 25 2.34375 25H17.9688C18.5904 25 19.1865 24.7531 19.626 24.3135C20.0656 23.874 20.3125 23.2779 20.3125 22.6562V12.2875C20.3125 12.0803 20.2302 11.8816 20.0837 11.7351C19.9372 11.5886 19.7385 11.5062 19.5312 11.5062C19.324 11.5062 19.1253 11.5886 18.9788 11.7351C18.8323 11.8816 18.75 12.0803 18.75 12.2875V22.6562C18.75 22.8635 18.6677 23.0622 18.5212 23.2087C18.3747 23.3552 18.176 23.4375 17.9688 23.4375H2.34375C2.13655 23.4375 1.93784 23.3552 1.79132 23.2087C1.64481 23.0622 1.5625 22.8635 1.5625 22.6562V7.03125C1.5625 6.82405 1.64481 6.62534 1.79132 6.47882C1.93784 6.33231 2.13655 6.25 2.34375 6.25H12.7125C12.9197 6.25 13.1184 6.16769 13.2649 6.02118C13.4114 5.87466 13.4937 5.67595 13.4937 5.46875Z" fill="white"/>
<path fill-rule="evenodd" clip-rule="evenodd" d="M25 0.78125C25 0.57405 24.9177 0.375336 24.7712 0.228823C24.6247 0.08231 24.426 0 24.2188 0L16.4063 0C16.1991 0 16.0003 0.08231 15.8538 0.228823C15.7073 0.375336 15.625 0.57405 15.625 0.78125C15.625 0.98845 15.7073 1.18716 15.8538 1.33368C16.0003 1.48019 16.1991 1.5625 16.4063 1.5625H22.3328L9.60314 14.2906C9.5305 14.3633 9.47288 14.4495 9.43357 14.5444C9.39426 14.6393 9.37402 14.741 9.37402 14.8438C9.37402 14.9465 9.39426 15.0482 9.43357 15.1431C9.47288 15.238 9.5305 15.3242 9.60314 15.3969C9.67577 15.4695 9.76201 15.5271 9.85691 15.5664C9.95182 15.6058 10.0535 15.626 10.1563 15.626C10.259 15.626 10.3607 15.6058 10.4556 15.5664C10.5505 15.5271 10.6367 15.4695 10.7094 15.3969L23.4375 2.66719V8.59375C23.4375 8.80095 23.5198 8.99966 23.6663 9.14618C23.8128 9.29269 24.0116 9.375 24.2188 9.375C24.426 9.375 24.6247 9.29269 24.7712 9.14618C24.9177 8.99966 25 8.80095 25 8.59375V0.78125Z" fill="white"/>
</svg>
