<svg width="25" height="25" viewBox="0 0 25 25" fill="none" xmlns="http://www.w3.org/2000/svg">
<path d="M21.1177 5.29856C22.0277 6.39053 22.4817 7.66449 22.4817 9.12045C22.4817 14.3973 19.4798 15.9443 16.6589 16.3993C17.0229 17.0362 17.1139 17.7642 17.1139 18.4922V22.2221C17.1139 22.6771 16.8409 22.9501 16.4769 22.9501C16.3809 22.9514 16.2856 22.9335 16.1967 22.8974C16.1078 22.8613 16.027 22.8077 15.9591 22.7398C15.8912 22.672 15.8377 22.5912 15.8016 22.5023C15.7655 22.4133 15.7476 22.3181 15.7489 22.2221V18.4922C15.7968 18.1108 15.7561 17.7236 15.6298 17.3605C15.5035 16.9975 15.2952 16.6685 15.0209 16.3993L15.4759 15.2163C18.2968 14.8523 21.2087 13.9423 21.2087 9.02945C21.2087 7.84649 20.7538 6.75452 19.9348 5.84454L19.7528 5.11756C20.0988 4.24563 20.1306 3.28046 19.8428 2.38764C19.3888 2.47763 18.4788 2.66063 16.9329 3.7526L16.3859 3.8426C14.2367 3.29687 11.9852 3.29687 9.83606 3.8426L9.28908 3.7526C7.65312 2.75163 6.74314 2.47863 6.28716 2.47863C6.01416 3.38861 6.01417 4.38858 6.37716 5.20856L6.19616 5.93554C5.28618 6.84551 4.8312 8.02848 4.8312 9.12045C4.8312 13.9423 7.56112 14.9433 10.563 15.3073L10.927 16.4902C10.381 17.0362 10.1081 17.7642 10.1991 18.4922V22.3131C10.2004 22.4091 10.1825 22.5043 10.1464 22.5933C10.1103 22.6822 10.0567 22.763 9.98883 22.8308C9.92096 22.8987 9.84017 22.9523 9.75124 22.9884C9.66231 23.0245 9.56704 23.0424 9.47107 23.0411C9.3751 23.0424 9.27983 23.0245 9.1909 22.9884C9.10197 22.9523 9.02118 22.8987 8.95331 22.8308C8.88544 22.763 8.83187 22.6822 8.79576 22.5933C8.75965 22.5043 8.74174 22.4091 8.74309 22.3131V20.2211C5.74117 20.8581 4.55821 19.3112 3.64823 18.1292C3.19324 17.5832 2.82925 17.1282 2.37426 17.0372C2.28427 16.9462 2.01027 16.5822 2.10127 16.2183C2.19227 15.8543 2.55626 15.5813 2.92125 15.7633C3.83122 15.9453 4.37621 16.6732 4.92119 17.3102C5.74117 18.4022 6.56015 19.4022 9.01608 18.8572V18.4932C8.92608 17.7652 9.10708 17.0372 9.47107 16.4002C6.74114 15.8543 3.55723 14.3073 3.55723 9.12145C3.55723 7.66549 4.01222 6.39153 4.9222 5.29956C4.6492 4.02659 4.7402 2.66163 5.19519 1.56966L5.65017 1.20567C5.83217 1.11467 7.10613 0.841678 9.74306 2.47863C11.9233 1.93272 14.2046 1.93272 16.3849 2.47863C18.9338 0.74968 20.2988 1.02167 20.4808 1.11367L20.9358 1.47766C21.3907 2.75163 21.4817 4.02559 21.1177 5.29856V5.29856Z" fill="white"/>
</svg>
