<svg width="50" height="50" viewBox="0 0 50 50" fill="none" xmlns="http://www.w3.org/2000/svg">
<g clip-path="url(#clip0_229:223)">
<path fill-rule="evenodd" clip-rule="evenodd" d="M26.9875 10.9375C26.9875 10.5231 26.8229 10.1257 26.5299 9.83265C26.2368 9.53962 25.8394 9.375 25.425 9.375H4.6875C3.4443 9.375 2.25201 9.86886 1.37294 10.7479C0.49386 11.627 0 12.8193 0 14.0625L0 45.3125C0 46.5557 0.49386 47.748 1.37294 48.6271C2.25201 49.5061 3.4443 50 4.6875 50H35.9375C37.1807 50 38.373 49.5061 39.2521 48.6271C40.1311 47.748 40.625 46.5557 40.625 45.3125V24.575C40.625 24.1606 40.4604 23.7632 40.1674 23.4701C39.8743 23.1771 39.4769 23.0125 39.0625 23.0125C38.6481 23.0125 38.2507 23.1771 37.9576 23.4701C37.6646 23.7632 37.5 24.1606 37.5 24.575V45.3125C37.5 45.7269 37.3354 46.1243 37.0424 46.4174C36.7493 46.7104 36.3519 46.875 35.9375 46.875H4.6875C4.2731 46.875 3.87567 46.7104 3.58265 46.4174C3.28962 46.1243 3.125 45.7269 3.125 45.3125V14.0625C3.125 13.6481 3.28962 13.2507 3.58265 12.9576C3.87567 12.6646 4.2731 12.5 4.6875 12.5H25.425C25.8394 12.5 26.2368 12.3354 26.5299 12.0424C26.8229 11.7493 26.9875 11.3519 26.9875 10.9375Z" fill="#1A0D28"/>
<path fill-rule="evenodd" clip-rule="evenodd" d="M50.0001 1.5625C50.0001 1.1481 49.8355 0.750671 49.5425 0.457646C49.2495 0.16462 48.852 0 48.4376 0L32.8126 0C32.3982 0 32.0008 0.16462 31.7078 0.457646C31.4148 0.750671 31.2501 1.1481 31.2501 1.5625C31.2501 1.9769 31.4148 2.37433 31.7078 2.66735C32.0008 2.96038 32.3982 3.125 32.8126 3.125H44.6658L19.2064 28.5812C19.0611 28.7265 18.9459 28.899 18.8673 29.0888C18.7886 29.2786 18.7482 29.4821 18.7482 29.6875C18.7482 29.8929 18.7886 30.0964 18.8673 30.2862C18.9459 30.476 19.0611 30.6485 19.2064 30.7938C19.3517 30.939 19.5241 31.0543 19.7139 31.1329C19.9038 31.2115 20.1072 31.252 20.3126 31.252C20.5181 31.252 20.7215 31.2115 20.9113 31.1329C21.1012 31.0543 21.2736 30.939 21.4189 30.7938L46.8751 5.33438V17.1875C46.8751 17.6019 47.0398 17.9993 47.3328 18.2924C47.6258 18.5854 48.0232 18.75 48.4376 18.75C48.852 18.75 49.2495 18.5854 49.5425 18.2924C49.8355 17.9993 50.0001 17.6019 50.0001 17.1875V1.5625Z" fill="#1A0D28"/>
</g>
<defs>
<clipPath id="clip0_229:223">
<rect width="50" height="50" fill="white"/>
</clipPath>
</defs>
</svg>
