<svg width="50" height="50" viewBox="0 0 50 50" fill="none" xmlns="http://www.w3.org/2000/svg">
<path d="M43.8229 10.9521C45.7188 13.2271 46.6646 15.8813 46.6646 18.9146C46.6646 29.9084 40.4104 33.1313 34.5334 34.0792C35.2917 35.4063 35.4813 36.923 35.4813 38.4396V46.2105C35.4813 47.1584 34.9125 47.7271 34.1542 47.7271C33.9542 47.7299 33.7558 47.6926 33.5705 47.6174C33.3852 47.5422 33.2169 47.4306 33.0755 47.2892C32.9341 47.1478 32.8225 46.9795 32.7473 46.7942C32.672 46.6089 32.6347 46.4104 32.6375 46.2105V38.4396C32.7374 37.6451 32.6525 36.8383 32.3894 36.082C32.1263 35.3257 31.6922 34.6403 31.1209 34.0792L32.0688 31.6146C37.9459 30.8563 44.0125 28.9605 44.0125 18.7251C44.0125 16.2605 43.0646 13.9855 41.3584 12.0896L40.9792 10.5751C41.7001 8.75849 41.7664 6.74766 41.1667 4.88756C40.2209 5.07506 38.325 5.45631 35.1042 7.73131L33.9646 7.91881C29.487 6.78186 24.7963 6.78186 20.3188 7.91881L19.1792 7.73131C15.7709 5.64589 13.875 5.07714 12.925 5.07714C12.3563 6.97297 12.3563 9.05631 13.1125 10.7646L12.7354 12.2792C10.8396 14.1751 9.89169 16.6396 9.89169 18.9146C9.89169 28.9605 15.5792 31.0459 21.8334 31.8042L22.5917 34.2688C21.4542 35.4063 20.8854 36.923 21.075 38.4396V46.4001C21.0778 46.6 21.0405 46.7985 20.9653 46.9838C20.8901 47.169 20.7785 47.3374 20.6371 47.4788C20.4957 47.6202 20.3273 47.7318 20.1421 47.807C19.9568 47.8822 19.7583 47.9195 19.5584 47.9167C19.3584 47.9195 19.1599 47.8822 18.9747 47.807C18.7894 47.7318 18.6211 47.6202 18.4797 47.4788C18.3383 47.3374 18.2267 47.169 18.1514 46.9838C18.0762 46.7985 18.0389 46.6 18.0417 46.4001V42.0417C11.7875 43.3688 9.32294 40.1459 7.42711 37.6834C6.47919 36.5459 5.72086 35.598 4.77294 35.4084C4.58544 35.2188 4.01461 34.4605 4.20419 33.7021C4.39377 32.9438 5.15211 32.3751 5.91252 32.7542C7.80836 33.1334 8.94377 34.6501 10.0792 35.9771C11.7875 38.2521 13.4938 40.3355 18.6104 39.2001V38.4417C18.4229 36.9251 18.8 35.4084 19.5584 34.0813C13.8709 32.9438 7.23752 29.7209 7.23752 18.9167C7.23752 15.8834 8.18544 13.2292 10.0813 10.9542C9.51252 8.30214 9.70211 5.45839 10.65 3.18339L11.5979 2.42506C11.9771 2.23547 14.6313 1.66672 20.125 5.07714C24.6674 3.93979 29.4201 3.93979 33.9625 5.07714C39.2729 1.47506 42.1167 2.04172 42.4959 2.23339L43.4438 2.99172C44.3917 5.64589 44.5813 8.30006 43.8229 10.9521V10.9521Z" fill="#1A0D28"/>
</svg>
