<svg width="50" height="50" viewBox="0 0 50 50" fill="none" xmlns="http://www.w3.org/2000/svg">
<path d="M10.3812 14.9937C12.8987 14.9937 14.9395 12.9529 14.9395 10.4354C14.9395 7.91791 12.8987 5.87708 10.3812 5.87708C7.86371 5.87708 5.82288 7.91791 5.82288 10.4354C5.82288 12.9529 7.86371 14.9937 10.3812 14.9937Z" fill="#1A0D28"/>
<path d="M19.2437 18.448V43.7376H27.0958V31.2313C27.0958 27.9313 27.7166 24.7355 31.8083 24.7355C35.8437 24.7355 35.8937 28.5084 35.8937 31.4397V43.7397H43.75V29.8709C43.75 23.0584 42.2833 17.823 34.3208 17.823C30.4979 17.823 27.9354 19.9209 26.8875 21.9063H26.7812V18.448H19.2437V18.448ZM6.44788 18.448H14.3125V43.7376H6.44788V18.448Z" fill="#1A0D28"/>
</svg>
