<svg width="376" height="350" viewBox="0 0 376 350" fill="none" xmlns="http://www.w3.org/2000/svg">
<g opacity="0.8">
<path d="M199.975 114.318V321.227H230.012V160.945L199.975 114.318Z" fill="white"/>
<path d="M342.074 321.227L199.975 103.827H230.012L375 321.227H342.074Z" fill="white"/>
<path d="M342.074 260.611L375 310.735V103.827H342.074V260.611Z" fill="white"/>
<path d="M199.975 114.318V321.227H230.012V160.945L199.975 114.318Z" stroke="black"/>
<path d="M342.074 321.227L199.975 103.827H230.012L375 321.227H342.074Z" stroke="black"/>
<path d="M342.074 260.611L375 310.735V103.827H342.074V260.611Z" stroke="black"/>
<path d="M114.306 183.049L106.015 213.448H177.868L166.813 183.049H114.306Z" fill="#7588B8" stroke="black"/>
<path d="M54.4287 348.862H1L105.094 2.49667H156.68L54.4287 348.862Z" fill="#7588B8"/>
<path d="M144.705 78.0338L165.892 2.49667L286.567 348.862H234.981L144.705 78.0338Z" fill="#7588B8"/>
<path d="M54.4287 348.862H1L105.094 2.49667H156.68L54.4287 348.862Z" stroke="black"/>
<path d="M144.705 78.0338L165.892 2.49667L286.567 348.862H234.981L144.705 78.0338Z" stroke="black"/>
</g>
</svg>
