<svg width="63" height="59" viewBox="0 0 63 59" fill="none" xmlns="http://www.w3.org/2000/svg">
<path d="M33.1702 20.0792V53.5319H38.0266V27.6178L33.1702 20.0792Z" fill="white"/>
<path d="M56.1447 53.5319L33.1702 18.383H38.0266L61.468 53.5319H56.1447Z" fill="white"/>
<path d="M56.1447 43.7317L61.468 51.8357V18.383H56.1447V43.7317Z" fill="white"/>
<path d="M33.1702 20.0792V53.5319H38.0266V27.6178L33.1702 20.0792Z" stroke="black"/>
<path d="M56.1447 53.5319L33.1702 18.383H38.0266L61.468 53.5319H56.1447Z" stroke="black"/>
<path d="M56.1447 43.7317L61.468 51.8357V18.383H56.1447V43.7317Z" stroke="black"/>
<path d="M19.3192 31.1915L17.9788 36.1064H29.5958L27.8085 31.1915H19.3192Z" fill="#4C4F65" stroke="black"/>
<path d="M9.6383 58H1L17.8298 2H26.1702L9.6383 58Z" fill="#4C4F65"/>
<path d="M24.234 14.2128L27.6596 2L47.1702 58H38.8298L24.234 14.2128Z" fill="#4C4F65"/>
<path d="M9.6383 58H1L17.8298 2H26.1702L9.6383 58Z" stroke="black"/>
<path d="M24.234 14.2128L27.6596 2L47.1702 58H38.8298L24.234 14.2128Z" stroke="black"/>
</svg>
